<svg width="74" height="74" viewBox="0 0 74 74" fill="none" xmlns="http://www.w3.org/2000/svg">
<path d="M65.0012 26.5463C65.2676 26.5463 65.5231 26.4405 65.7114 26.2522C65.8998 26.0638 66.0056 25.8084 66.0056 25.542C66.0056 25.2756 65.8998 25.0202 65.7114 24.8318C65.5231 24.6435 65.2676 24.5376 65.0012 24.5376H55.9593V19.0338C55.9633 18.3423 55.8301 17.6569 55.5673 17.0173C55.3046 16.3776 54.9175 15.7965 54.4285 15.3075C53.9396 14.8186 53.3584 14.4315 52.7188 14.1687C52.0791 13.906 51.3937 13.7728 50.7022 13.7768H45.1984V4.73481C45.1984 4.46845 45.0926 4.21299 44.9043 4.02463C44.7159 3.83628 44.4604 3.73047 44.1941 3.73047C43.9277 3.73047 43.6722 3.83628 43.4839 4.02463C43.2955 4.21299 43.1897 4.46845 43.1897 4.73481V13.7768H34.0071V4.73481C34.0071 4.46845 33.9013 4.21299 33.713 4.02463C33.5246 3.83628 33.2692 3.73047 33.0028 3.73047C32.7364 3.73047 32.481 3.83628 32.2926 4.02463C32.1043 4.21299 31.9985 4.46845 31.9985 4.73481V13.7768H22.8159V4.73481C22.8159 4.46845 22.7101 4.21299 22.5217 4.02463C22.3333 3.83628 22.0779 3.73047 21.8115 3.73047C21.5451 3.73047 21.2897 3.83628 21.1013 4.02463C20.913 4.21299 20.8072 4.46845 20.8072 4.73481V13.7768H15.3034C14.6119 13.7728 13.9264 13.906 13.2868 14.1687C12.6472 14.4315 12.066 14.8186 11.5771 15.3075C11.0881 15.7965 10.701 16.3776 10.4383 17.0173C10.1755 17.6569 10.0423 18.3423 10.0463 19.0338V24.5376H1.00435C0.737977 24.5376 0.482517 24.6435 0.294166 24.8318C0.105815 25.0202 0 25.2756 0 25.542C0 25.8084 0.105815 26.0638 0.294166 26.2522C0.482517 26.4405 0.737977 26.5463 1.00435 26.5463H10.0463V35.7289H1.00435C0.737977 35.7289 0.482517 35.8347 0.294166 36.0231C0.105815 36.2114 0 36.4669 0 36.7333C0 36.9996 0.105815 37.2551 0.294166 37.4434C0.482517 37.6318 0.737977 37.7376 1.00435 37.7376H10.0463V46.9202H1.00435C0.737977 46.9202 0.482517 47.026 0.294166 47.2144C0.105815 47.4027 0 47.6582 0 47.9245C0 48.1909 0.105815 48.4464 0.294166 48.6347C0.482517 48.8231 0.737977 48.9289 1.00435 48.9289H10.0463V54.4327C10.0423 55.1242 10.1755 55.8096 10.4383 56.4492C10.701 57.0889 11.0881 57.67 11.5771 58.159C12.066 58.648 12.6472 59.035 13.2868 59.2978C13.9264 59.5606 14.6119 59.6938 15.3034 59.6897H20.8072V68.7317C20.8072 68.9981 20.913 69.2535 21.1013 69.4419C21.2897 69.6302 21.5451 69.7361 21.8115 69.7361C22.0779 69.7361 22.3333 69.6302 22.5217 69.4419C22.7101 69.2535 22.8159 68.9981 22.8159 68.7317V59.6897H31.9985V68.7317C31.9985 68.9981 32.1043 69.2535 32.2926 69.4419C32.481 69.6302 32.7364 69.7361 33.0028 69.7361C33.2692 69.7361 33.5246 69.6302 33.713 69.4419C33.9013 69.2535 34.0071 68.9981 34.0071 68.7317V59.6897H43.1897V68.7317C43.1897 68.9981 43.2955 69.2535 43.4839 69.4419C43.6722 69.6302 43.9277 69.7361 44.1941 69.7361C44.4604 69.7361 44.7159 69.6302 44.9043 69.4419C45.0926 69.2535 45.1984 68.9981 45.1984 68.7317V59.6897H50.7022C51.3937 59.6938 52.0791 59.5606 52.7188 59.2978C53.3584 59.035 53.9396 58.648 54.4285 58.159C54.9175 57.67 55.3046 57.0889 55.5673 56.4492C55.8301 55.8096 55.9633 55.1242 55.9593 54.4327V48.9289H65.0012C65.2676 48.9289 65.5231 48.8231 65.7114 48.6347C65.8998 48.4464 66.0056 48.1909 66.0056 47.9245C66.0056 47.6582 65.8998 47.4027 65.7114 47.2144C65.5231 47.026 65.2676 46.9202 65.0012 46.9202H55.9593V37.7376H65.0012C65.2676 37.7376 65.5231 37.6318 65.7114 37.4434C65.8998 37.2551 66.0056 36.9996 66.0056 36.7333C66.0056 36.4669 65.8998 36.2114 65.7114 36.0231C65.5231 35.8347 65.2676 35.7289 65.0012 35.7289H55.9593V26.5463H65.0012ZM53.9506 54.4327C53.9549 54.8605 53.8739 55.2848 53.7121 55.6809C53.5504 56.077 53.3113 56.4368 53.0088 56.7393C52.7063 57.0418 52.3465 57.2809 51.9504 57.4426C51.5544 57.6043 51.13 57.6854 50.7022 57.681H15.3034C14.8756 57.6854 14.4512 57.6043 14.0552 57.4426C13.6591 57.2809 13.2993 57.0418 12.9968 56.7393C12.6943 56.4368 12.4552 56.077 12.2935 55.6809C12.1317 55.2848 12.0507 54.8605 12.055 54.4327V48.0336C12.055 48.0079 12.0589 47.9822 12.0589 47.956C12.0589 47.9297 12.055 47.9039 12.055 47.8782V36.811C12.055 36.7852 12.0589 36.7595 12.0589 36.7333C12.0589 36.707 12.055 36.6813 12.055 36.6555V25.5882C12.055 25.5625 12.0589 25.5367 12.0589 25.5104C12.0589 25.4842 12.055 25.4585 12.055 25.4328V19.0337C12.0507 18.6059 12.1318 18.1816 12.2935 17.7855C12.4552 17.3895 12.6943 17.0297 12.9968 16.7272C13.2993 16.4247 13.6591 16.1856 14.0552 16.0239C14.4513 15.8622 14.8756 15.7812 15.3034 15.7855H50.7022C51.13 15.7812 51.5544 15.8622 51.9504 16.0239C52.3465 16.1856 52.7063 16.4247 53.0088 16.7272C53.3113 17.0297 53.5504 17.3896 53.7121 17.7856C53.8739 18.1817 53.9549 18.606 53.9506 19.0338V54.4327Z" fill="url(#paint0_linear_2064_14948)"/>
<path d="M49.0708 21.8117C49.0708 21.5453 48.965 21.2899 48.7766 21.1015C48.5883 20.9132 48.3328 20.8074 48.0664 20.8074H18.0795C17.8132 20.8074 17.5577 20.9132 17.3694 21.1015C17.181 21.2899 17.0752 21.5453 17.0752 21.8117V51.7986C17.0752 52.065 17.181 52.3204 17.3694 52.5088C17.5577 52.6971 17.8132 52.803 18.0795 52.803H48.0664C48.3328 52.803 48.5883 52.6971 48.7766 52.5088C48.965 52.3204 49.0708 52.065 49.0708 51.7986V21.8117ZM46.9186 50.6508H19.0839V22.8161H46.9186V50.6508Z" fill="url(#paint1_linear_2064_14948)"/>
<path fill-rule="evenodd" clip-rule="evenodd" d="M36.6505 40.1358L38.1005 41.6006C37.9844 41.8724 37.9524 42.1727 38.0087 42.4628C38.0649 42.753 38.2069 43.0196 38.4162 43.2282L41.2126 46.0247C41.4888 46.3009 41.8686 46.4587 42.2582 46.4587C42.6479 46.4587 43.0276 46.3009 43.3038 46.0247C43.58 45.7485 43.7379 45.3687 43.7379 44.9791C43.7379 44.5895 43.58 44.2097 43.3038 43.9335L40.5074 41.137C40.2838 40.9138 39.9947 40.768 39.6823 40.721C39.3699 40.674 39.0506 40.7281 38.7713 40.8756L37.3558 39.4453C38.5148 38.1383 39.2152 36.422 39.2152 34.5429C39.2152 30.4591 35.9008 27.1448 31.8171 27.1448C27.7333 27.1448 24.4141 30.4542 24.4141 34.5379C24.4141 38.6217 27.7284 41.936 31.8121 41.936C33.6617 41.936 35.3484 41.2554 36.6456 40.1358H36.6505ZM42.6035 45.3293C42.5098 45.423 42.3865 45.4723 42.2533 45.4723C42.1201 45.4723 41.9968 45.418 41.9031 45.3293L39.1067 42.5328C39.0129 42.4391 38.9636 42.3158 38.9636 42.1826C38.9636 42.0494 39.0179 41.9261 39.1067 41.8324C39.1523 41.7867 39.2065 41.7504 39.2661 41.7257C39.3258 41.7009 39.3898 41.6882 39.4544 41.6882C39.519 41.6882 39.5829 41.7009 39.6426 41.7257C39.7022 41.7504 39.7564 41.7867 39.8021 41.8324L42.5985 44.6289C42.6923 44.7226 42.7416 44.8459 42.7416 44.9791C42.7416 45.1123 42.6873 45.2356 42.5985 45.3293H42.6035ZM26.1403 44.3379C27.0478 44.8558 28.0983 45.1961 29.2672 45.3835C29.5385 45.4279 29.79 45.2405 29.8344 44.9742C29.8445 44.9103 29.8419 44.8452 29.8268 44.7824C29.8117 44.7196 29.7844 44.6603 29.7463 44.6081C29.7083 44.5559 29.6604 44.5117 29.6052 44.478C29.5501 44.4443 29.4889 44.4219 29.425 44.4119C28.3794 44.2442 27.4423 43.9483 26.6335 43.4847C26.5775 43.4526 26.5157 43.4318 26.4516 43.4236C26.3876 43.4154 26.3226 43.4199 26.2603 43.4369C26.198 43.4538 26.1396 43.4829 26.0886 43.5224C26.0375 43.5619 25.9948 43.6111 25.9627 43.6672C25.8246 43.9039 25.9085 44.2048 26.1452 44.3429L26.1403 44.3379ZM26.0762 41.8275C27.7431 43.1867 29.829 43.9273 31.9798 43.9236C32.2511 43.9236 32.473 43.7017 32.473 43.4304C32.473 43.1592 32.2511 42.9372 31.9798 42.9372C29.9774 42.9372 28.1427 42.2369 26.6976 41.063C26.5958 40.981 26.4659 40.9422 26.3358 40.9552C26.2057 40.9681 26.0858 41.0316 26.0022 41.1321C25.8296 41.3442 25.8641 41.6549 26.0762 41.8275ZM31.8121 28.1263C35.3484 28.1263 38.2238 31.0016 38.2238 34.5379C38.2238 38.0742 35.3484 40.9496 31.8121 40.9496C28.2759 40.9496 25.4005 38.0742 25.4005 34.5379C25.4005 31.0016 28.2759 28.1263 31.8121 28.1263ZM31.8121 29.1127C28.8184 29.1127 26.3869 31.5442 26.3869 34.5379C26.3869 37.5317 28.8184 39.9632 31.8121 39.9632C34.8059 39.9632 37.2374 37.5317 37.2374 34.5379C37.2374 31.5442 34.8059 29.1127 31.8121 29.1127ZM31.8121 30.0991C32.9895 30.0991 34.1185 30.5669 34.951 31.3994C35.7834 32.232 36.2511 33.3611 36.251 34.5384C36.2509 35.7157 35.7832 36.8448 34.9506 37.6773C34.1181 38.5097 32.989 38.9773 31.8117 38.9773C31.2287 38.9772 30.6515 38.8624 30.1129 38.6393C29.5743 38.4162 29.085 38.0891 28.6728 37.6769C27.8404 36.8444 27.3727 35.7152 27.3728 34.5379C27.3729 33.3606 27.8406 32.2315 28.6732 31.3991C29.5057 30.5666 30.6348 30.099 31.8121 30.0991ZM31.3189 36.0175H34.2782C34.5494 36.0175 34.7714 35.7956 34.7714 35.5243C34.7714 35.2531 34.5494 35.0311 34.2782 35.0311H31.3189C31.0477 35.0311 30.8257 35.2531 30.8257 35.5243C30.8257 35.7956 31.0477 36.0175 31.3189 36.0175ZM38.3225 29.2557C39.4914 30.6959 40.1966 32.5355 40.1966 34.5379C40.1966 34.8092 40.4186 35.0311 40.6898 35.0311C40.9611 35.0311 41.183 34.8092 41.183 34.5379C41.183 32.2988 40.3989 30.247 39.0869 28.6343C39.0459 28.584 38.9953 28.5423 38.9381 28.5115C38.8809 28.4808 38.8182 28.4617 38.7536 28.4553C38.6889 28.4489 38.6237 28.4553 38.5616 28.4742C38.4994 28.493 38.4416 28.524 38.3915 28.5652C38.3412 28.6063 38.2995 28.6568 38.2688 28.7141C38.2381 28.7713 38.219 28.834 38.2126 28.8986C38.2061 28.9632 38.2126 29.0284 38.2314 29.0906C38.2503 29.1527 38.2812 29.2105 38.3225 29.2606V29.2557ZM29.3461 34.0447H34.2782C34.5494 34.0447 34.7714 33.8228 34.7714 33.5515C34.7714 33.2803 34.5494 33.0583 34.2782 33.0583H29.3461C29.0749 33.0583 28.8529 33.2803 28.8529 33.5515C28.8529 33.8228 29.0749 34.0447 29.3461 34.0447ZM40.754 29.3593C41.2176 30.1681 41.5135 31.1052 41.6812 32.1508C41.7015 32.2803 41.7723 32.3964 41.8783 32.4737C41.9842 32.5509 42.1164 32.5829 42.2459 32.5626C42.3754 32.5424 42.4915 32.4715 42.5688 32.3656C42.646 32.2597 42.678 32.1274 42.6577 31.9979C42.4703 30.829 42.13 29.7785 41.6121 28.871C41.5472 28.7581 41.4401 28.6755 41.3144 28.6413C41.1887 28.6071 41.0546 28.6241 40.9414 28.6885C40.7046 28.8217 40.6257 29.1275 40.7589 29.3642L40.754 29.3593Z" fill="url(#paint2_linear_2064_14948)"/>
<defs>
<linearGradient id="paint0_linear_2064_14948" x1="41.0992" y1="67.2453" x2="-21.5892" y2="60.7138" gradientUnits="userSpaceOnUse">
<stop stop-color="#2CA2B5"/>
<stop offset="1" stop-color="#5AB0EA"/>
</linearGradient>
<linearGradient id="paint1_linear_2064_14948" x1="62.3163" y1="68.4008" x2="-25.4038" y2="65.1855" gradientUnits="userSpaceOnUse">
<stop stop-color="#28A0F0"/>
<stop offset="1" stop-color="#61626C"/>
</linearGradient>
<linearGradient id="paint2_linear_2064_14948" x1="51.7375" y1="55.8743" x2="-1.24115" y2="53.9314" gradientUnits="userSpaceOnUse">
<stop stop-color="#28A0F0"/>
<stop offset="1" stop-color="#61626C"/>
</linearGradient>
</defs>
</svg>
